<?xml version="1.0" encoding="utf-8"?>
<svg version="1.1" xmlns:xlink="http://www.w3.org/1999/xlink" width="758px" height="558px" xmlns="http://www.w3.org/2000/svg">
  <g transform="matrix(1 0 0 1 -113 -3275 )">
    <path d="M 113 3275  L 871 3275  L 871 3833  L 113 3833  L 113 3275  " fill-rule="nonzero" fill="#cccccc" stroke="none" />
    <path d="M 152 3314  L 832 3314  L 832 3794  L 152 3794  L 152 3314  " fill-rule="nonzero" fill="#ffffff" stroke="none" />
    <path d="M 549.01 3442.4  C 525.574 3442.4  507.16 3423.986  507.16 3400.55  C 507.16 3377.114  525.574 3358.7  549.01 3358.7  C 572.446 3358.7  590.86 3377.114  590.86 3400.55  C 590.86 3423.986  572.446 3442.4  549.01 3442.4  " fill-rule="nonzero" fill="#cccccc" stroke="none" />
    <path d="M 166 3780  L 166 3531.4  L 329 3418.4  L 557.2 3580.35672823219  L 687.6 3486.2  L 818 3580.35672823219  L 818 3780  L 166 3780  " fill-rule="nonzero" fill="#169bd5" stroke="none" />
  </g>
</svg>