<?xml version="1.0" encoding="utf-8"?>
<svg version="1.1" xmlns:xlink="http://www.w3.org/1999/xlink" width="109px" height="97px" xmlns="http://www.w3.org/2000/svg">
  <g transform="matrix(1 0 0 1 -133 -3924 )">
    <path d="M 133 3924  L 242 3924  L 242 4021  L 133 4021  L 133 3924  " fill-rule="nonzero" fill="#cccccc" stroke="none" />
    <path d="M 140 3931  L 235 3931  L 235 4014  L 140 4014  L 140 3931  " fill-rule="nonzero" fill="#ffffff" stroke="none" />
    <path d="M 196.955 3953.1  C 192.881 3953.1  189.68 3949.899  189.68 3945.825  C 189.68 3941.751  192.881 3938.55  196.955 3938.55  C 201.029 3938.55  204.23 3941.751  204.23 3945.825  C 204.23 3949.899  201.029 3953.1  196.955 3953.1  " fill-rule="nonzero" fill="#cccccc" stroke="none" />
    <path d="M 143 4012  L 143 3969.1  L 165.5 3949.6  L 197 3970.35229357798  L 215 3961.3  L 233 3970.35229357798  L 233 4012  L 143 4012  " fill-rule="nonzero" fill="#169bd5" stroke="none" />
  </g>
</svg>