<?xml version="1.0" encoding="utf-8"?>
<svg version="1.1" xmlns:xlink="http://www.w3.org/1999/xlink" width="22px" height="21px" xmlns="http://www.w3.org/2000/svg">
  <g transform="matrix(1 0 0 1 -771 -354 )">
    <path d="M 782 354  C 788.16 354  793 358.62  793 364.5  C 793 370.38  788.16 375  782 375  C 775.84 375  771 370.38  771 364.5  C 771 358.62  775.84 354  782 354  Z " fill-rule="nonzero" fill="#bfbf00" stroke="none" />
    <path d="M 782 354.5  C 787.88 354.5  792.5 358.9  792.5 364.5  C 792.5 370.1  787.88 374.5  782 374.5  C 776.12 374.5  771.5 370.1  771.5 364.5  C 771.5 358.9  776.12 354.5  782 354.5  Z " stroke-width="1" stroke="#797979" fill="none" />
  </g>
</svg>