<?xml version="1.0" encoding="utf-8"?>
<svg version="1.1" xmlns:xlink="http://www.w3.org/1999/xlink" width="1341px" height="431px" xmlns="http://www.w3.org/2000/svg">
  <g transform="matrix(1 0 0 1 -250 -229 )">
    <path d="M 250 229  L 1591 229  L 1591 660  L 250 660  L 250 229  " fill-rule="nonzero" fill="#cccccc" stroke="none" />
    <path d="M 280 259  L 1561 259  L 1561 630  L 280 630  L 280 259  " fill-rule="nonzero" fill="#ffffff" stroke="none" />
    <path d="M 979.645 358.3  C 961.543 358.3  947.32 344.077  947.32 325.975  C 947.32 307.873  961.543 293.65  979.645 293.65  C 997.747 293.65  1011.97 307.873  1011.97 325.975  C 1011.97 344.077  997.747 358.3  979.645 358.3  " fill-rule="nonzero" fill="#cccccc" stroke="none" />
    <path d="M 291 619  L 291 427.05  L 605.75 339.8  L 1046.4 551.698434004474  L 1298.2 392.15  L 1550 551.698434004474  L 1550 619  L 291 619  " fill-rule="nonzero" fill="#169bd5" stroke="none" />
  </g>
</svg>