<?xml version="1.0" encoding="utf-8"?>
<svg version="1.1" xmlns:xlink="http://www.w3.org/1999/xlink" width="1535px" height="519px" xmlns="http://www.w3.org/2000/svg">
  <g transform="matrix(1 0 0 1 -48 -265 )">
    <path d="M 48 265  L 1583 265  L 1583 784  L 48 784  L 48 265  " fill-rule="nonzero" fill="#cccccc" stroke="none" />
    <path d="M 84 301  L 1547 301  L 1547 748  L 84 748  L 84 301  " fill-rule="nonzero" fill="#ffffff" stroke="none" />
    <path d="M 885.125 420.7  C 863.327 420.7  846.2 403.573  846.2 381.775  C 846.2 359.977  863.327 342.85  885.125 342.85  C 906.923 342.85  924.05 359.977  924.05 381.775  C 924.05 403.573  906.923 420.7  885.125 420.7  " fill-rule="nonzero" fill="#cccccc" stroke="none" />
    <path d="M 97 735  L 97 503.45  L 456.25 398.2  L 959.2 649.5932247557  L 1246.6 461.35  L 1534 649.5932247557  L 1534 735  L 97 735  " fill-rule="nonzero" fill="#169bd5" stroke="none" />
  </g>
</svg>